<?xml version="1.0" encoding="UTF-8"?>
<!DOCTYPE svg PUBLIC "-//W3C//DTD SVG 1.1//EN" "http://www.w3.org/Graphics/SVG/1.1/DTD/svg11.dtd">
<svg xmlns="http://www.w3.org/2000/svg" version="1.1" width="156px" height="143px" style="shape-rendering:geometricPrecision; text-rendering:geometricPrecision; image-rendering:optimizeQuality; fill-rule:evenodd; clip-rule:evenodd" xmlns:xlink="http://www.w3.org/1999/xlink">
<g><path style="opacity:1" fill="#d7dddd" d="M 82.5,19.5 C 82.6716,20.4916 82.3382,21.1583 81.5,21.5C 79.8872,20.1619 79.3872,18.4952 80,16.5C 80.8518,17.5707 81.6851,18.5707 82.5,19.5 Z"/></g>
<g><path style="opacity:1" fill="#2f464e" d="M 68.5,12.5 C 72.0078,13.5041 75.1745,15.1707 78,17.5C 78.49,16.2068 78.6567,14.8734 78.5,13.5C 81.2921,13.6225 83.2921,14.9558 84.5,17.5C 83.1667,17.5 82.5,18.1667 82.5,19.5C 81.6851,18.5707 80.8518,17.5707 80,16.5C 79.3872,18.4952 79.8872,20.1619 81.5,21.5C 76.6355,19.2371 72.3021,16.2371 68.5,12.5 Z"/></g>
<g><path style="opacity:1" fill="#25bac7" d="M 67.5,12.5 C 74.1554,21.4915 80.822,30.4915 87.5,39.5C 87.6596,41.153 88.3263,42.4863 89.5,43.5C 89.5,44.8333 89.5,46.1667 89.5,47.5C 89.8432,49.4832 89.1765,50.8166 87.5,51.5C 87.1667,50.5 86.5,49.8333 85.5,49.5C 83.1997,38.2093 77.8664,28.876 69.5,21.5C 68.3694,18.7502 66.7028,16.4169 64.5,14.5C 65.2905,13.5987 66.2905,12.9321 67.5,12.5 Z"/></g>
<g><path style="opacity:0.875" fill="#142527" d="M 111.5,31.5 C 109.5,30.8333 107.5,30.1667 105.5,29.5C 102.74,25.4082 99.0734,22.4082 94.5,20.5C 93.596,19.791 93.2627,18.791 93.5,17.5C 94.8734,17.3433 96.2068,17.51 97.5,18C 102.434,22.2857 107.1,26.7857 111.5,31.5 Z"/></g>
<g><path style="opacity:0.91" fill="#113236" d="M 84.5,17.5 C 88.3077,19.5729 91.9744,21.9062 95.5,24.5C 95.7822,25.7777 96.4489,26.7777 97.5,27.5C 96.5,27.5 95.5,27.5 94.5,27.5C 90.7852,24.4519 87.4518,21.1185 84.5,17.5 Z"/></g>
<g><path style="opacity:1" fill="#325c60" d="M 64.5,14.5 C 66.7028,16.4169 68.3694,18.7502 69.5,21.5C 69.4326,22.9587 69.7659,24.2921 70.5,25.5C 69.7978,26.1157 68.7978,26.1157 67.5,25.5C 64.0246,23.5928 60.6912,21.4262 57.5,19C 53.5527,13.9302 49.0527,9.43016 44,5.5C 43.51,6.79323 43.3433,8.12656 43.5,9.5C 43.5,13.5 43.5,17.5 43.5,21.5C 42.6805,18.6946 42.1805,15.6946 42,12.5C 40.5591,18.8122 39.2258,25.1455 38,31.5C 37.2944,37.8699 37.4611,44.2033 38.5,50.5C 35.8593,48.3831 33.026,45.7164 30,42.5C 31.2462,46.326 33.0796,49.9927 35.5,53.5C 34.1667,53.5 33.5,54.1667 33.5,55.5C 32.9033,55.7352 32.5699,56.2352 32.5,57C 33.6056,59.489 34.6056,61.989 35.5,64.5C 36.1406,67.221 36.6406,69.8877 37,72.5C 34.4086,67.5727 30.7419,63.5727 26,60.5C 25.805,61.8193 25.9717,63.1526 26.5,64.5C 25.6043,65.5063 24.9377,65.5063 24.5,64.5C 24.6816,62.4086 24.3482,60.4086 23.5,58.5C 23.9569,57.7025 24.6236,57.3691 25.5,57.5C 26.1667,57.5 26.8333,57.5 27.5,57.5C 28.5046,59.5622 30.1713,60.3955 32.5,60C 32.0853,57.9737 31.0853,56.4737 29.5,55.5C 30.0563,50.3235 29.0563,45.4901 26.5,41C 26.8333,40.5 27.1667,40 27.5,39.5C 29.1667,40.1667 30.8333,40.8333 32.5,41.5C 33.7989,40.91 34.6322,39.91 35,38.5C 36.7994,27.0022 39.2994,15.6689 42.5,4.5C 43.365,3.41728 44.365,3.25061 45.5,4C 50.464,9.1319 56.1307,13.2986 62.5,16.5C 63.1818,15.7573 63.8485,15.0906 64.5,14.5 Z"/></g>
<g><path style="opacity:1" fill="#147e85" d="M 67.5,12.5 C 67.8333,12.5 68.1667,12.5 68.5,12.5C 72.3021,16.2371 76.6355,19.2371 81.5,21.5C 82.9073,23.3083 84.074,25.3083 85,27.5C 85.1875,31.7232 86.0208,35.7232 87.5,39.5C 80.822,30.4915 74.1554,21.4915 67.5,12.5 Z"/></g>
<g><path style="opacity:1" fill="#0dbecc" d="M 43.5,9.5 C 46.6967,14.8853 49.6967,20.5519 52.5,26.5C 53.325,27.3857 54.325,27.719 55.5,27.5C 53.5267,38.7074 54.1934,49.7074 57.5,60.5C 57.44,61.0431 57.1067,61.3764 56.5,61.5C 55.7348,60.3881 54.7348,59.7214 53.5,59.5C 53.5,58.8333 53.5,58.1667 53.5,57.5C 52.8592,56.5178 52.1925,55.5178 51.5,54.5C 52.1667,54.1667 52.8333,53.8333 53.5,53.5C 49.0357,43.7986 45.7024,33.7986 43.5,23.5C 43.5,22.8333 43.5,22.1667 43.5,21.5C 43.5,17.5 43.5,13.5 43.5,9.5 Z"/></g>
<g><path style="opacity:1" fill="#beebef" d="M 43.5,21.5 C 43.5,22.1667 43.5,22.8333 43.5,23.5C 43.3766,29.6003 44.0432,35.6003 45.5,41.5C 44.4415,40.3998 43.6082,39.0664 43,37.5C 42.8493,43.6013 43.6826,49.6013 45.5,55.5C 45.4573,56.4164 45.1239,57.0831 44.5,57.5C 44.5,56.8333 44.1667,56.5 43.5,56.5C 42.2851,49.876 41.2851,43.2094 40.5,36.5C 41.4665,24.563 41.1331,24.563 39.5,36.5C 39.757,43.2997 40.757,49.9664 42.5,56.5C 41.5,56.1667 40.8333,55.5 40.5,54.5C 40.0113,53.0048 39.3446,51.6715 38.5,50.5C 37.4611,44.2033 37.2944,37.8699 38,31.5C 39.2258,25.1455 40.5591,18.8122 42,12.5C 42.1805,15.6946 42.6805,18.6946 43.5,21.5 Z"/></g>
<g><path style="opacity:1" fill="#0d969d" d="M 67.5,25.5 C 67.6621,27.5273 67.4955,29.5273 67,31.5C 66.0138,32.1712 64.8471,32.1712 63.5,31.5C 61.2547,28.7495 58.7547,26.0828 56,23.5C 55.51,24.7932 55.3433,26.1266 55.5,27.5C 54.325,27.719 53.325,27.3857 52.5,26.5C 49.6967,20.5519 46.6967,14.8853 43.5,9.5C 43.3433,8.12656 43.51,6.79323 44,5.5C 49.0527,9.43016 53.5527,13.9302 57.5,19C 60.6912,21.4262 64.0246,23.5928 67.5,25.5 Z"/></g>
<g><path style="opacity:1" fill="#7898a0" d="M 43.5,56.5 C 43.1667,56.5 42.8333,56.5 42.5,56.5C 40.757,49.9664 39.757,43.2997 39.5,36.5C 41.1331,24.563 41.4665,24.563 40.5,36.5C 41.2851,43.2094 42.2851,49.876 43.5,56.5 Z"/></g>
<g><path style="opacity:1" fill="#254f54" d="M 82.5,19.5 C 84.6744,22.5154 86.3411,25.8487 87.5,29.5C 87.6741,31.861 88.0074,34.1944 88.5,36.5C 88.9926,38.8056 89.3259,41.139 89.5,43.5C 88.3263,42.4863 87.6596,41.153 87.5,39.5C 86.0208,35.7232 85.1875,31.7232 85,27.5C 84.074,25.3083 82.9073,23.3083 81.5,21.5C 82.3382,21.1583 82.6716,20.4916 82.5,19.5 Z"/></g>
<g><path style="opacity:1" fill="#1c969f" d="M 84.5,17.5 C 87.4518,21.1185 90.7852,24.4519 94.5,27.5C 102.009,35.204 105.675,44.5373 105.5,55.5C 103.938,55.7329 102.605,56.3995 101.5,57.5C 100.997,49.9979 99.6634,42.6645 97.5,35.5C 95.8762,35.6399 94.7096,34.9733 94,33.5C 96.6197,42.2051 98.2863,51.2051 99,60.5C 99.3826,59.944 99.8826,59.6107 100.5,59.5C 100.938,59.4346 101.272,59.6012 101.5,60C 99.6997,61.8119 98.0331,63.6452 96.5,65.5C 96.1667,65.5 95.8333,65.5 95.5,65.5C 95.5,64.8333 95.5,64.1667 95.5,63.5C 96.6935,63.0296 97.3601,62.0296 97.5,60.5C 96.3189,52.0304 94.4855,43.6971 92,35.5C 91.1864,32.8233 89.6864,30.8233 87.5,29.5C 86.3411,25.8487 84.6744,22.5154 82.5,19.5C 82.5,18.1667 83.1667,17.5 84.5,17.5 Z"/></g>
<g><path style="opacity:1" fill="#30c0ca" d="M 63.5,31.5 C 63.7214,32.7348 64.3881,33.7348 65.5,34.5C 64.624,35.2508 63.624,35.7508 62.5,36C 66.8021,44.3708 71.4687,52.5375 76.5,60.5C 76.5,60.8333 76.5,61.1667 76.5,61.5C 75.8333,61.5 75.1667,61.5 74.5,61.5C 69.0067,53.8552 64.0067,45.8552 59.5,37.5C 59.6309,36.6236 59.2975,35.9569 58.5,35.5C 58.1667,36.8333 57.8333,38.1667 57.5,39.5C 59.0883,44.4461 60.4217,49.4461 61.5,54.5C 60.8826,54.3893 60.3826,54.056 60,53.5C 59.5831,54.756 58.7498,55.4226 57.5,55.5C 56.0852,46.1818 56.2519,36.8484 58,27.5C 59.451,29.4641 61.2843,30.7974 63.5,31.5 Z"/></g>
<g><path style="opacity:1" fill="#afe6ef" d="M 69.5,21.5 C 77.8664,28.876 83.1997,38.2093 85.5,49.5C 82.5865,48.0939 80.0865,46.0939 78,43.5C 75.7294,37.3061 73.2294,31.3061 70.5,25.5C 69.7659,24.2921 69.4326,22.9587 69.5,21.5 Z"/></g>
<g><path style="opacity:1" fill="#137176" d="M 94.5,27.5 C 95.5,27.5 96.5,27.5 97.5,27.5C 102.211,31.0454 106.045,35.3787 109,40.5C 108.39,41.5177 107.89,43.1843 107.5,45.5C 106.778,45.0825 106.278,44.4158 106,43.5C 105.532,46.6172 106.032,49.6172 107.5,52.5C 107.36,54.0296 106.693,55.0296 105.5,55.5C 105.675,44.5373 102.009,35.204 94.5,27.5 Z"/></g>
<g><path style="opacity:1" fill="#18919d" d="M 43.5,23.5 C 45.7024,33.7986 49.0357,43.7986 53.5,53.5C 52.8333,53.8333 52.1667,54.1667 51.5,54.5C 52.1925,55.5178 52.8592,56.5178 53.5,57.5C 52.6236,57.3691 51.9569,57.7025 51.5,58.5C 52.7752,62.1334 52.1085,62.4667 49.5,59.5C 50.0431,59.44 50.3764,59.1067 50.5,58.5C 49.251,52.6339 47.5843,46.9672 45.5,41.5C 44.0432,35.6003 43.3766,29.6003 43.5,23.5 Z"/></g>
<g><path style="opacity:1" fill="#2dc1cf" d="M 45.5,41.5 C 47.5843,46.9672 49.251,52.6339 50.5,58.5C 50.3764,59.1067 50.0431,59.44 49.5,59.5C 47.8828,58.962 46.2161,58.6287 44.5,58.5C 44.5,58.1667 44.5,57.8333 44.5,57.5C 45.1239,57.0831 45.4573,56.4164 45.5,55.5C 43.6826,49.6013 42.8493,43.6013 43,37.5C 43.6082,39.0664 44.4415,40.3998 45.5,41.5 Z"/></g>
<g><path style="opacity:1" fill="#2b9ba6" d="M 94.5,20.5 C 99.0734,22.4082 102.74,25.4082 105.5,29.5C 106.648,35.1408 109.315,39.8075 113.5,43.5C 113.898,46.4825 114.232,49.4825 114.5,52.5C 114.349,55.1193 113.515,57.4527 112,59.5C 110.018,55.0061 108.518,50.3394 107.5,45.5C 107.89,43.1843 108.39,41.5177 109,40.5C 106.045,35.3787 102.211,31.0454 97.5,27.5C 96.4489,26.7777 95.7822,25.7777 95.5,24.5C 95.5674,23.0413 95.2341,21.7079 94.5,20.5 Z"/></g>
<g><path style="opacity:0.929" fill="#2b797f" d="M 105.5,29.5 C 107.5,30.1667 109.5,30.8333 111.5,31.5C 116.339,34.84 118.839,39.5066 119,45.5C 120.188,44.4366 120.688,43.1033 120.5,41.5C 121.5,41.5 122.5,41.5 123.5,41.5C 123.893,47.678 123.06,53.678 121,59.5C 120.292,60.3805 119.458,61.0472 118.5,61.5C 120.304,56.2939 121.137,50.9606 121,45.5C 120.768,46.7375 120.268,47.7375 119.5,48.5C 118.992,46.7673 118.159,46.434 117,47.5C 115.908,44.2905 114.741,41.1239 113.5,38C 112.833,37.3333 112.167,37.3333 111.5,38C 113.155,39.4443 113.822,41.2776 113.5,43.5C 109.315,39.8075 106.648,35.1408 105.5,29.5 Z"/></g>
<g><path style="opacity:1" fill="#076272" d="M 63.5,31.5 C 61.2843,30.7974 59.451,29.4641 58,27.5C 56.2519,36.8484 56.0852,46.1818 57.5,55.5C 58.494,57.3344 58.494,59.0011 57.5,60.5C 54.1934,49.7074 53.5267,38.7074 55.5,27.5C 55.3433,26.1266 55.51,24.7932 56,23.5C 58.7547,26.0828 61.2547,28.7495 63.5,31.5 Z"/></g>
<g><path style="opacity:1" fill="#0eb8c3" d="M 101.5,57.5 C 101.5,57.8333 101.5,58.1667 101.5,58.5C 100.833,58.5 100.5,58.8333 100.5,59.5C 99.8826,59.6107 99.3826,59.944 99,60.5C 98.2863,51.2051 96.6197,42.2051 94,33.5C 94.7096,34.9733 95.8762,35.6399 97.5,35.5C 99.6634,42.6645 100.997,49.9979 101.5,57.5 Z"/></g>
<g><path style="opacity:1" fill="#17888f" d="M 67.5,25.5 C 68.7978,26.1157 69.7978,26.1157 70.5,25.5C 73.2294,31.3061 75.7294,37.3061 78,43.5C 80.0865,46.0939 82.5865,48.0939 85.5,49.5C 86.5,49.8333 87.1667,50.5 87.5,51.5C 89.9794,57.4048 88.6461,57.5715 83.5,52C 82.8333,51.3333 82.1667,51.3333 81.5,52C 82.6667,53.1667 83.8333,54.3333 85,55.5C 85.6877,56.3317 85.521,56.9984 84.5,57.5C 82.3501,55.8509 80.3501,54.0176 78.5,52C 77.365,51.2506 76.365,51.4173 75.5,52.5C 78.595,54.0905 81.2616,56.2572 83.5,59C 81.0796,59.2904 78.7463,59.7904 76.5,60.5C 71.4687,52.5375 66.8021,44.3708 62.5,36C 63.624,35.7508 64.624,35.2508 65.5,34.5C 64.3881,33.7348 63.7214,32.7348 63.5,31.5C 64.8471,32.1712 66.0138,32.1712 67,31.5C 67.4955,29.5273 67.6621,27.5273 67.5,25.5 Z"/></g>
<g><path style="opacity:1" fill="#59bdc2" d="M 38.5,50.5 C 39.3446,51.6715 40.0113,53.0048 40.5,54.5C 38.7839,54.3713 37.1172,54.038 35.5,53.5C 33.0796,49.9927 31.2462,46.326 30,42.5C 33.026,45.7164 35.8593,48.3831 38.5,50.5 Z"/></g>
<g><path style="opacity:1" fill="#a2dfe2" d="M 87.5,29.5 C 89.6864,30.8233 91.1864,32.8233 92,35.5C 94.4855,43.6971 96.3189,52.0304 97.5,60.5C 97.3601,62.0296 96.6935,63.0296 95.5,63.5C 93.901,63.7678 92.5676,63.4345 91.5,62.5C 92.7567,54.7918 92.59,47.1252 91,39.5C 90.7645,37.8807 89.9311,36.8807 88.5,36.5C 88.0074,34.1944 87.6741,31.861 87.5,29.5 Z"/></g>
<g><path style="opacity:1" fill="#80acb3" d="M 88.5,36.5 C 89.9311,36.8807 90.7645,37.8807 91,39.5C 92.59,47.1252 92.7567,54.7918 91.5,62.5C 90.5084,62.6716 89.8417,62.3382 89.5,61.5C 90.8333,56.8333 90.8333,52.1667 89.5,47.5C 89.5,46.1667 89.5,44.8333 89.5,43.5C 89.3259,41.139 88.9926,38.8056 88.5,36.5 Z"/></g>
<g><path style="opacity:1" fill="#12565d" d="M 119.5,48.5 C 117.904,52.8584 115.904,57.025 113.5,61C 113.667,61.5 113.833,62 114,62.5C 115,61.1667 116,59.8333 117,58.5C 117.47,59.5768 117.303,60.5768 116.5,61.5C 115.306,63.4844 115.306,65.4844 116.5,67.5C 118.729,65.447 121.062,65.1137 123.5,66.5C 126.327,68.7781 129.827,72.1115 134,76.5C 134.464,75.9056 134.631,75.2389 134.5,74.5C 135.338,74.8417 135.672,75.5084 135.5,76.5C 135.5,77.5 135.5,78.5 135.5,79.5C 133.801,79.6602 132.134,79.4935 130.5,79C 127.226,73.6934 122.559,71.0268 116.5,71C 116.833,71.3333 117.167,71.6667 117.5,72C 116.552,72.4828 115.552,72.6495 114.5,72.5C 115.048,67.0335 112.714,63.8668 107.5,63C 108.623,61.9563 109.956,61.2896 111.5,61C 110.529,59.5187 109.196,58.6854 107.5,58.5C 106.828,57.7326 105.995,57.0659 105,56.5C 104.184,57.8228 103.017,58.4894 101.5,58.5C 101.5,58.1667 101.5,57.8333 101.5,57.5C 102.605,56.3995 103.938,55.7329 105.5,55.5C 106.693,55.0296 107.36,54.0296 107.5,52.5C 106.032,49.6172 105.532,46.6172 106,43.5C 106.278,44.4158 106.778,45.0825 107.5,45.5C 108.518,50.3394 110.018,55.0061 112,59.5C 113.515,57.4527 114.349,55.1193 114.5,52.5C 114.232,49.4825 113.898,46.4825 113.5,43.5C 113.822,41.2776 113.155,39.4443 111.5,38C 112.167,37.3333 112.833,37.3333 113.5,38C 114.741,41.1239 115.908,44.2905 117,47.5C 118.159,46.434 118.992,46.7673 119.5,48.5 Z"/></g>
<g><path style="opacity:1" fill="#164548" d="M 134.5,74.5 C 134.631,75.2389 134.464,75.9056 134,76.5C 129.827,72.1115 126.327,68.7781 123.5,66.5C 124.649,66.2089 125.316,65.3756 125.5,64C 126.379,57.1733 126.212,50.34 125,43.5C 124.722,42.5842 124.222,41.9175 123.5,41.5C 122.5,41.5 121.5,41.5 120.5,41.5C 120.699,39.0401 121.365,36.7067 122.5,34.5C 127.663,42.86 129.83,51.86 129,61.5C 129.333,61.8333 129.667,62.1667 130,62.5C 130.541,59.791 132.041,57.791 134.5,56.5C 135.078,61.3994 134.412,66.2327 132.5,71C 132.978,72.3026 133.645,73.4693 134.5,74.5 Z"/></g>
<g><path style="opacity:1" fill="#afd8e0" d="M 118.5,61.5 C 117.833,61.5 117.167,61.5 116.5,61.5C 117.303,60.5768 117.47,59.5768 117,58.5C 116,59.8333 115,61.1667 114,62.5C 113.833,62 113.667,61.5 113.5,61C 115.904,57.025 117.904,52.8584 119.5,48.5C 120.268,47.7375 120.768,46.7375 121,45.5C 121.137,50.9606 120.304,56.2939 118.5,61.5 Z"/></g>
<g><path style="opacity:1" fill="#212e2e" d="M 25.5,57.5 C 24.6236,57.3691 23.9569,57.7025 23.5,58.5C 24.3482,60.4086 24.6816,62.4086 24.5,64.5C 22.6701,62.1737 21.3367,59.507 20.5,56.5C 22.5819,55.1057 24.2486,55.439 25.5,57.5 Z"/></g>
<g><path style="opacity:1" fill="#cec8c9" d="M 29.5,55.5 C 31.0853,56.4737 32.0853,57.9737 32.5,60C 30.1713,60.3955 28.5046,59.5622 27.5,57.5C 28.5,57.1667 29.1667,56.5 29.5,55.5 Z"/></g>
<g><path style="opacity:1" fill="#1e6765" d="M 89.5,47.5 C 90.8333,52.1667 90.8333,56.8333 89.5,61.5C 85.1409,60.3499 80.8076,60.3499 76.5,61.5C 76.5,61.1667 76.5,60.8333 76.5,60.5C 78.7463,59.7904 81.0796,59.2904 83.5,59C 81.2616,56.2572 78.595,54.0905 75.5,52.5C 76.365,51.4173 77.365,51.2506 78.5,52C 80.3501,54.0176 82.3501,55.8509 84.5,57.5C 85.521,56.9984 85.6877,56.3317 85,55.5C 83.8333,54.3333 82.6667,53.1667 81.5,52C 82.1667,51.3333 82.8333,51.3333 83.5,52C 88.6461,57.5715 89.9794,57.4048 87.5,51.5C 89.1765,50.8166 89.8432,49.4832 89.5,47.5 Z"/></g>
<g><path style="opacity:1" fill="#83b1b7" d="M 107.5,58.5 C 104.904,59.0953 103.237,60.762 102.5,63.5C 101.505,68.7921 101.172,74.1254 101.5,79.5C 99.0649,75.2006 97.3982,70.534 96.5,65.5C 98.0331,63.6452 99.6997,61.8119 101.5,60C 101.272,59.6012 100.938,59.4346 100.5,59.5C 100.5,58.8333 100.833,58.5 101.5,58.5C 103.017,58.4894 104.184,57.8228 105,56.5C 105.995,57.0659 106.828,57.7326 107.5,58.5 Z"/></g>
<g><path style="opacity:1" fill="#99bcc3" d="M 59.5,37.5 C 59.4831,41.6242 60.6498,45.2909 63,48.5C 64.8469,53.5211 66.6803,58.5211 68.5,63.5C 70.0231,66.345 71.0231,69.345 71.5,72.5C 67.2338,67.0514 63.9005,61.0514 61.5,54.5C 60.4217,49.4461 59.0883,44.4461 57.5,39.5C 57.8333,38.1667 58.1667,36.8333 58.5,35.5C 59.2975,35.9569 59.6309,36.6236 59.5,37.5 Z"/></g>
<g><path style="opacity:1" fill="#c0eef5" d="M 59.5,37.5 C 64.0067,45.8552 69.0067,53.8552 74.5,61.5C 73.9553,63.5932 73.122,65.5932 72,67.5C 71.0513,65.9069 69.8846,64.5736 68.5,63.5C 66.6803,58.5211 64.8469,53.5211 63,48.5C 60.6498,45.2909 59.4831,41.6242 59.5,37.5 Z"/></g>
<g><path style="opacity:1" fill="#18adb6" d="M 123.5,41.5 C 124.222,41.9175 124.722,42.5842 125,43.5C 126.212,50.34 126.379,57.1733 125.5,64C 125.316,65.3756 124.649,66.2089 123.5,66.5C 121.062,65.1137 118.729,65.447 116.5,67.5C 115.306,65.4844 115.306,63.4844 116.5,61.5C 117.167,61.5 117.833,61.5 118.5,61.5C 119.458,61.0472 120.292,60.3805 121,59.5C 123.06,53.678 123.893,47.678 123.5,41.5 Z"/></g>
<g><path style="opacity:1" fill="#138b93" d="M 35.5,53.5 C 37.1172,54.038 38.7839,54.3713 40.5,54.5C 40.8333,55.5 41.5,56.1667 42.5,56.5C 42.8333,56.5 43.1667,56.5 43.5,56.5C 44.1667,56.5 44.5,56.8333 44.5,57.5C 44.5,57.8333 44.5,58.1667 44.5,58.5C 47.1497,61.7564 50.1497,64.5897 53.5,67C 57.2358,67.703 60.5691,69.203 63.5,71.5C 64.3382,71.8417 64.6716,72.5084 64.5,73.5C 62.4862,73.3915 60.8195,74.0582 59.5,75.5C 59.2786,74.2652 58.6119,73.2652 57.5,72.5C 51.4228,69.3844 46.0895,65.3844 41.5,60.5C 40.1667,59.1667 38.8333,59.1667 37.5,60.5C 38.6302,61.6223 39.2969,62.9557 39.5,64.5C 36.7232,62.0495 34.7232,59.0495 33.5,55.5C 33.5,54.1667 34.1667,53.5 35.5,53.5 Z"/></g>
<g><path style="opacity:1" fill="#1eafb8" d="M 61.5,54.5 C 63.9005,61.0514 67.2338,67.0514 71.5,72.5C 71.8186,74.7505 71.3186,76.7505 70,78.5C 68.2962,76.6266 66.4628,74.9599 64.5,73.5C 64.6716,72.5084 64.3382,71.8417 63.5,71.5C 62.5103,68.8495 61.5103,66.1828 60.5,63.5C 56.9181,64.5389 54.5848,63.2056 53.5,59.5C 54.7348,59.7214 55.7348,60.3881 56.5,61.5C 57.1067,61.3764 57.44,61.0431 57.5,60.5C 58.494,59.0011 58.494,57.3344 57.5,55.5C 58.7498,55.4226 59.5831,54.756 60,53.5C 60.3826,54.056 60.8826,54.3893 61.5,54.5 Z"/></g>
<g><path style="opacity:1" fill="#309ca5" d="M 107.5,58.5 C 109.196,58.6854 110.529,59.5187 111.5,61C 109.956,61.2896 108.623,61.9563 107.5,63C 112.714,63.8668 115.048,67.0335 114.5,72.5C 115.552,72.6495 116.552,72.4828 117.5,72C 117.167,71.6667 116.833,71.3333 116.5,71C 122.559,71.0268 127.226,73.6934 130.5,79C 132.134,79.4935 133.801,79.6602 135.5,79.5C 137.511,81.667 138.678,84.3337 139,87.5C 139.827,91.5411 139.66,95.5411 138.5,99.5C 137.692,97.5767 137.192,95.5767 137,93.5C 136.667,94.1667 136.333,94.8333 136,95.5C 135,93.5 134,91.5 133,89.5C 132.329,88.7476 131.496,88.4142 130.5,88.5C 130.649,87.448 130.483,86.448 130,85.5C 126.144,81.2382 121.977,77.4048 117.5,74C 115.866,73.5065 114.199,73.3398 112.5,73.5C 112.708,71.0799 112.374,68.7466 111.5,66.5C 110.635,65.4173 109.635,65.2506 108.5,66C 107.789,67.2547 106.956,68.4214 106,69.5C 105.667,74.1667 105.333,78.8333 105,83.5C 104.26,81.6813 103.093,80.3479 101.5,79.5C 101.172,74.1254 101.505,68.7921 102.5,63.5C 103.237,60.762 104.904,59.0953 107.5,58.5 Z"/></g>
<g><path style="opacity:1" fill="#2c5253" d="M 130.5,88.5 C 128.871,87.3747 127.371,86.0414 126,84.5C 122.68,86.6409 120.846,89.6409 120.5,93.5C 119.167,93.5 117.833,93.5 116.5,93.5C 115.5,92.1667 114.5,90.8333 113.5,89.5C 114.167,89.5 114.833,89.5 115.5,89.5C 116.978,89.762 118.311,89.4287 119.5,88.5C 118.047,85.7024 117.047,82.7024 116.5,79.5C 115.083,77.7389 113.417,76.4056 111.5,75.5C 110.017,73.9062 108.517,72.2395 107,70.5C 106.239,74.3374 106.739,78.0041 108.5,81.5C 108.167,82.8333 107.833,84.1667 107.5,85.5C 108.225,86.8669 108.892,88.2003 109.5,89.5C 108.504,89.4142 107.671,89.7476 107,90.5C 106.241,88.9371 105.074,87.9371 103.5,87.5C 102.258,85.7499 100.758,84.0832 99,82.5C 98.5172,83.448 98.3505,84.448 98.5,85.5C 98.1667,85.5 97.8333,85.5 97.5,85.5C 93.3112,84.4813 92.6446,82.4813 95.5,79.5C 96.7348,79.7214 97.7348,80.3881 98.5,81.5C 99.1067,81.3764 99.44,81.0431 99.5,80.5C 100.925,82.0311 101.591,81.6977 101.5,79.5C 103.093,80.3479 104.26,81.6813 105,83.5C 105.333,78.8333 105.667,74.1667 106,69.5C 106.956,68.4214 107.789,67.2547 108.5,66C 109.635,65.2506 110.635,65.4173 111.5,66.5C 112.374,68.7466 112.708,71.0799 112.5,73.5C 114.199,73.3398 115.866,73.5065 117.5,74C 121.977,77.4048 126.144,81.2382 130,85.5C 130.483,86.448 130.649,87.448 130.5,88.5 Z"/></g>
<g><path style="opacity:1" fill="#87adb4" d="M 44.5,67.5 C 47.9426,71.6187 51.9426,74.952 56.5,77.5C 56.2504,78.9221 55.417,79.9221 54,80.5C 49.7002,77.2019 45.7002,73.5352 42,69.5C 41.7188,67.0953 42.3854,67.0953 44,69.5C 44.4643,68.9056 44.631,68.2389 44.5,67.5 Z"/></g>
<g><path style="opacity:1" fill="#055157" d="M 53.5,57.5 C 53.5,58.1667 53.5,58.8333 53.5,59.5C 54.5848,63.2056 56.9181,64.5389 60.5,63.5C 61.5103,66.1828 62.5103,68.8495 63.5,71.5C 60.5691,69.203 57.2358,67.703 53.5,67C 50.1497,64.5897 47.1497,61.7564 44.5,58.5C 46.2161,58.6287 47.8828,58.962 49.5,59.5C 52.1085,62.4667 52.7752,62.1334 51.5,58.5C 51.9569,57.7025 52.6236,57.3691 53.5,57.5 Z"/></g>
<g><path style="opacity:1" fill="#4c4640" d="M 95.5,65.5 C 95.8333,65.5 96.1667,65.5 96.5,65.5C 97.3982,70.534 99.0649,75.2006 101.5,79.5C 101.591,81.6977 100.925,82.0311 99.5,80.5C 98.0582,79.1805 97.3915,77.5138 97.5,75.5C 96.6261,72.2107 95.9595,68.8774 95.5,65.5 Z"/></g>
<g><path style="opacity:1" fill="#20bac6" d="M 59.5,75.5 C 59.5,76.1667 59.5,76.8333 59.5,77.5C 58.8333,77.5 58.1667,77.5 57.5,77.5C 57.1667,77.5 56.8333,77.5 56.5,77.5C 51.9426,74.952 47.9426,71.6187 44.5,67.5C 42.8869,66.3077 41.2202,65.3077 39.5,64.5C 39.2969,62.9557 38.6302,61.6223 37.5,60.5C 38.8333,59.1667 40.1667,59.1667 41.5,60.5C 46.0895,65.3844 51.4228,69.3844 57.5,72.5C 58.6119,73.2652 59.2786,74.2652 59.5,75.5 Z"/></g>
<g><path style="opacity:1" fill="#2badb4" d="M 91.5,71.5 C 93.5,72.8333 95.5,74.1667 97.5,75.5C 97.3915,77.5138 98.0582,79.1805 99.5,80.5C 99.44,81.0431 99.1067,81.3764 98.5,81.5C 97.7348,80.3881 96.7348,79.7214 95.5,79.5C 92.8946,78.5317 90.5613,77.1984 88.5,75.5C 87.791,74.596 86.791,74.2627 85.5,74.5C 85.238,73.0222 85.5713,71.6888 86.5,70.5C 88.0709,71.3094 89.7376,71.6427 91.5,71.5 Z"/></g>
<g><path style="opacity:1" fill="#e6c1a0" d="M 111.5,75.5 C 111.656,78.0661 111.322,80.5661 110.5,83C 110.844,85.8869 112.177,86.7202 114.5,85.5C 115.429,86.6888 115.762,88.0222 115.5,89.5C 114.833,89.5 114.167,89.5 113.5,89.5C 111.983,89.5106 110.816,90.1772 110,91.5C 109.536,90.9056 109.369,90.2389 109.5,89.5C 108.892,88.2003 108.225,86.8669 107.5,85.5C 107.833,84.1667 108.167,82.8333 108.5,81.5C 106.739,78.0041 106.239,74.3374 107,70.5C 108.517,72.2395 110.017,73.9062 111.5,75.5 Z"/></g>
<g><path style="opacity:1" fill="#a27052" d="M 57.5,77.5 C 58.1667,77.5 58.8333,77.5 59.5,77.5C 59.369,78.2389 59.5357,78.9056 60,79.5C 60.8373,77.9926 62.0039,77.4926 63.5,78C 66.8725,81.7432 69.2058,86.0766 70.5,91C 69.6854,92.6434 68.6854,94.1434 67.5,95.5C 66.0222,95.762 64.6888,95.4287 63.5,94.5C 64.1667,94.1667 64.8333,93.8333 65.5,93.5C 65.2907,92.914 64.9574,92.414 64.5,92C 65.8333,91.6667 67.1667,91.3333 68.5,91C 66.2686,90.378 64.4352,89.2113 63,87.5C 62.5357,88.0944 62.369,88.7611 62.5,89.5C 61.5595,86.8749 60.3928,86.8749 59,89.5C 58.8091,87.2922 58.3091,85.2922 57.5,83.5C 57.5,82.5 57.5,81.5 57.5,80.5C 57.5,79.5 57.5,78.5 57.5,77.5 Z"/></g>
<g><path style="opacity:1" fill="#4c6b68" d="M 74.5,61.5 C 75.1667,61.5 75.8333,61.5 76.5,61.5C 75.623,64.2577 74.4563,66.9244 73,69.5C 72.2109,71.7116 72.3775,73.7116 73.5,75.5C 73.5,77.5 73.5,79.5 73.5,81.5C 72.5,81.5 71.5,81.5 70.5,81.5C 68.5211,78.8544 66.1878,76.5211 63.5,74.5C 62.1482,75.5244 60.8149,76.5244 59.5,77.5C 59.5,76.8333 59.5,76.1667 59.5,75.5C 60.8195,74.0582 62.4862,73.3915 64.5,73.5C 66.4628,74.9599 68.2962,76.6266 70,78.5C 71.3186,76.7505 71.8186,74.7505 71.5,72.5C 71.0231,69.345 70.0231,66.345 68.5,63.5C 69.8846,64.5736 71.0513,65.9069 72,67.5C 73.122,65.5932 73.9553,63.5932 74.5,61.5 Z"/></g>
<g><path style="opacity:1" fill="#bae6f1" d="M 33.5,55.5 C 34.7232,59.0495 36.7232,62.0495 39.5,64.5C 41.2202,65.3077 42.8869,66.3077 44.5,67.5C 44.631,68.2389 44.4643,68.9056 44,69.5C 42.3854,67.0953 41.7188,67.0953 42,69.5C 45.7002,73.5352 49.7002,77.2019 54,80.5C 55.417,79.9221 56.2504,78.9221 56.5,77.5C 56.8333,77.5 57.1667,77.5 57.5,77.5C 57.5,78.5 57.5,79.5 57.5,80.5C 56.0687,81.7804 55.4021,83.4471 55.5,85.5C 46.7535,80.4216 40.0868,73.4216 35.5,64.5C 34.6056,61.989 33.6056,59.489 32.5,57C 32.5699,56.2352 32.9033,55.7352 33.5,55.5 Z"/></g>
<g><path style="opacity:1" fill="#fdf7ed" d="M 80.5,81.5 C 82.9779,82.8832 85.6446,83.8832 88.5,84.5C 86.7134,89.3177 85.7134,94.3177 85.5,99.5C 83.665,100.122 82.4983,101.456 82,103.5C 81.6667,105.5 81.3333,107.5 81,109.5C 80.6174,108.944 80.1174,108.611 79.5,108.5C 79.1583,107.662 78.4916,107.328 77.5,107.5C 77.1583,106.662 76.4916,106.328 75.5,106.5C 74.1658,98.8213 74.4992,91.1547 76.5,83.5C 77.5237,82.1468 78.857,81.4802 80.5,81.5 Z"/></g>
<g><path style="opacity:1" fill="#f1cfb3" d="M 89.5,61.5 C 89.8417,62.3382 90.5084,62.6716 91.5,62.5C 92.5676,63.4345 93.901,63.7678 95.5,63.5C 95.5,64.1667 95.5,64.8333 95.5,65.5C 95.9595,68.8774 96.6261,72.2107 97.5,75.5C 95.5,74.1667 93.5,72.8333 91.5,71.5C 91.5,71.1667 91.5,70.8333 91.5,70.5C 91.8333,65.5 89.5,63.1667 84.5,63.5C 84.3253,65.6208 84.6586,67.6208 85.5,69.5C 84.5041,69.4142 83.6708,69.7476 83,70.5C 82.5983,71.8721 82.0983,73.2054 81.5,74.5C 83.7427,75.4742 86.076,75.8076 88.5,75.5C 90.5613,77.1984 92.8946,78.5317 95.5,79.5C 92.6446,82.4813 93.3112,84.4813 97.5,85.5C 97.44,86.0431 97.1067,86.3764 96.5,86.5C 91.7914,84.4961 87.1248,82.4961 82.5,80.5C 81.5836,80.5427 80.9169,80.8761 80.5,81.5C 78.857,81.4802 77.5237,82.1468 76.5,83.5C 74.4992,91.1547 74.1658,98.8213 75.5,106.5C 73.8333,106.5 72.1667,106.5 70.5,106.5C 69.3922,105.177 69.3922,103.677 70.5,102C 69.0944,100.022 68.0944,97.8553 67.5,95.5C 68.6854,94.1434 69.6854,92.6434 70.5,91C 69.2058,86.0766 66.8725,81.7432 63.5,78C 62.0039,77.4926 60.8373,77.9926 60,79.5C 59.5357,78.9056 59.369,78.2389 59.5,77.5C 60.8149,76.5244 62.1482,75.5244 63.5,74.5C 66.1878,76.5211 68.5211,78.8544 70.5,81.5C 70.811,82.4778 71.4777,83.1445 72.5,83.5C 75.7291,82.1255 76.8958,79.7921 76,76.5C 75.3292,75.7476 74.4959,75.4142 73.5,75.5C 72.3775,73.7116 72.2109,71.7116 73,69.5C 74.4563,66.9244 75.623,64.2577 76.5,61.5C 80.8076,60.3499 85.1409,60.3499 89.5,61.5 Z"/></g>
<g><path style="opacity:1" fill="#a38775" d="M 73.5,75.5 C 74.4959,75.4142 75.3292,75.7476 76,76.5C 76.8958,79.7921 75.7291,82.1255 72.5,83.5C 71.4777,83.1445 70.811,82.4778 70.5,81.5C 71.5,81.5 72.5,81.5 73.5,81.5C 73.5,79.5 73.5,77.5 73.5,75.5 Z"/></g>
<g><path style="opacity:1" fill="#3a625d" d="M 85.5,69.5 C 87.5648,69.5172 89.5648,69.8505 91.5,70.5C 91.5,70.8333 91.5,71.1667 91.5,71.5C 89.7376,71.6427 88.0709,71.3094 86.5,70.5C 85.5713,71.6888 85.238,73.0222 85.5,74.5C 86.791,74.2627 87.791,74.596 88.5,75.5C 86.076,75.8076 83.7427,75.4742 81.5,74.5C 82.0983,73.2054 82.5983,71.8721 83,70.5C 83.6708,69.7476 84.5041,69.4142 85.5,69.5 Z"/></g>
<g><path style="opacity:1" fill="#fbf7ed" d="M 91.5,70.5 C 89.5648,69.8505 87.5648,69.5172 85.5,69.5C 84.6586,67.6208 84.3253,65.6208 84.5,63.5C 89.5,63.1667 91.8333,65.5 91.5,70.5 Z"/></g>
<g><path style="opacity:1" fill="#134d53" d="M 31.5,79.5 C 35.6749,80.3497 39.6749,81.683 43.5,83.5C 44.4419,83.3918 45.2753,83.0585 46,82.5C 48.1667,84.6667 50.3333,86.8333 52.5,89C 50.8333,89.6667 49.1667,89.6667 47.5,89C 42.2881,85.4309 36.6214,82.9309 30.5,81.5C 30.8333,80.8333 31.1667,80.1667 31.5,79.5 Z"/></g>
<g><path style="opacity:1" fill="#eae6e1" d="M 103.5,87.5 C 103.565,87.9382 103.399,88.2716 103,88.5C 101.729,87.1175 100.229,86.1175 98.5,85.5C 98.3505,84.448 98.5172,83.448 99,82.5C 100.758,84.0832 102.258,85.7499 103.5,87.5 Z"/></g>
<g><path style="opacity:1" fill="#ba7e5d" d="M 111.5,75.5 C 113.417,76.4056 115.083,77.7389 116.5,79.5C 117.047,82.7024 118.047,85.7024 119.5,88.5C 118.311,89.4287 116.978,89.762 115.5,89.5C 115.762,88.0222 115.429,86.6888 114.5,85.5C 112.177,86.7202 110.844,85.8869 110.5,83C 111.322,80.5661 111.656,78.0661 111.5,75.5 Z"/></g>
<g><path style="opacity:1" fill="#93725f" d="M 80.5,81.5 C 80.9169,80.8761 81.5836,80.5427 82.5,80.5C 87.1248,82.4961 91.7914,84.4961 96.5,86.5C 97.1067,86.3764 97.44,86.0431 97.5,85.5C 97.8333,85.5 98.1667,85.5 98.5,85.5C 100.229,86.1175 101.729,87.1175 103,88.5C 103.399,88.2716 103.565,87.9382 103.5,87.5C 105.074,87.9371 106.241,88.9371 107,90.5C 107.671,89.7476 108.504,89.4142 109.5,89.5C 109.369,90.2389 109.536,90.9056 110,91.5C 110.816,90.1772 111.983,89.5106 113.5,89.5C 114.5,90.8333 115.5,92.1667 116.5,93.5C 115.662,93.8417 115.328,94.5084 115.5,95.5C 114.149,99.1691 112.816,102.836 111.5,106.5C 111.507,108.369 111.84,110.036 112.5,111.5C 111.833,112.833 110.833,113.833 109.5,114.5C 111.354,111.163 110.687,110.163 107.5,111.5C 110.562,105.656 109.562,104.989 104.5,109.5C 104.167,109.167 103.833,108.833 103.5,108.5C 105.404,107.234 106.737,105.567 107.5,103.5C 108.496,103.414 109.329,103.748 110,104.5C 110.667,103.833 110.667,103.167 110,102.5C 107.39,100.118 104.557,98.1179 101.5,96.5C 100.287,96.7472 99.62,97.4138 99.5,98.5C 98.9578,101.919 96.9578,103.586 93.5,103.5C 95.1667,100.833 96.8333,98.1667 98.5,95.5C 97.7611,95.631 97.0944,95.4643 96.5,95C 97.6853,93.647 99.0186,92.4803 100.5,91.5C 99.6872,90.1861 98.6872,89.0195 97.5,88C 94.4744,86.8175 91.4744,85.6508 88.5,84.5C 85.6446,83.8832 82.9779,82.8832 80.5,81.5 Z"/></g>
<g><path style="opacity:1" fill="#49514c" d="M 57.5,80.5 C 57.5,81.5 57.5,82.5 57.5,83.5C 55.8993,89.0905 56.5659,94.4238 59.5,99.5C 58.8333,99.5 58.1667,99.5 57.5,99.5C 57.5,98.8333 57.5,98.1667 57.5,97.5C 55.6571,93.8131 54.9905,89.8131 55.5,85.5C 55.4021,83.4471 56.0687,81.7804 57.5,80.5 Z"/></g>
<g><path style="opacity:1" fill="#ade4e9" d="M 33.5,86.5 C 39.9486,90.5625 46.6153,94.3958 53.5,98C 54.9285,98.5791 56.2618,98.4124 57.5,97.5C 57.5,98.1667 57.5,98.8333 57.5,99.5C 56.7354,99.9234 55.9021,100.257 55,100.5C 52.5952,99.0468 50.0952,97.7134 47.5,96.5C 41.0764,96.1372 36.4097,92.8038 33.5,86.5 Z"/></g>
<g><path style="opacity:1" fill="#f9d2b1" d="M 88.5,84.5 C 91.4744,85.6508 94.4744,86.8175 97.5,88C 98.6872,89.0195 99.6872,90.1861 100.5,91.5C 99.0186,92.4803 97.6853,93.647 96.5,95C 97.0944,95.4643 97.7611,95.631 98.5,95.5C 96.8333,98.1667 95.1667,100.833 93.5,103.5C 91.9557,103.703 90.6223,104.37 89.5,105.5C 88.8076,104.975 88.3076,104.308 88,103.5C 87.7811,104.938 87.2811,106.271 86.5,107.5C 85.52,104.914 85.1866,102.247 85.5,99.5C 85.7134,94.3177 86.7134,89.3177 88.5,84.5 Z"/></g>
<g><path style="opacity:0.114" fill="#39474a" d="M 135.5,76.5 C 137.708,77.8936 139.208,79.8936 140,82.5C 140.667,89.8333 140.667,97.1667 140,104.5C 139.417,106.002 138.584,107.335 137.5,108.5C 136.743,101.227 134.41,94.5607 130.5,88.5C 131.496,88.4142 132.329,88.7476 133,89.5C 134,91.5 135,93.5 136,95.5C 136.333,94.8333 136.667,94.1667 137,93.5C 137.192,95.5767 137.692,97.5767 138.5,99.5C 139.66,95.5411 139.827,91.5411 139,87.5C 138.678,84.3337 137.511,81.667 135.5,79.5C 135.5,78.5 135.5,77.5 135.5,76.5 Z"/></g>
<g><path style="opacity:1" fill="#2ba8b1" d="M 35.5,64.5 C 40.0868,73.4216 46.7535,80.4216 55.5,85.5C 54.9905,89.8131 55.6571,93.8131 57.5,97.5C 56.2618,98.4124 54.9285,98.5791 53.5,98C 46.6153,94.3958 39.9486,90.5625 33.5,86.5C 32.8333,86.5 32.1667,86.5 31.5,86.5C 32.2231,84.8361 31.8897,83.1694 30.5,81.5C 36.6214,82.9309 42.2881,85.4309 47.5,89C 49.1667,89.6667 50.8333,89.6667 52.5,89C 50.3333,86.8333 48.1667,84.6667 46,82.5C 45.2753,83.0585 44.4419,83.3918 43.5,83.5C 39.6749,81.683 35.6749,80.3497 31.5,79.5C 32.0906,78.8485 32.7573,78.1818 33.5,77.5C 30.7075,73.3846 28.3741,69.0512 26.5,64.5C 25.9717,63.1526 25.805,61.8193 26,60.5C 30.7419,63.5727 34.4086,67.5727 37,72.5C 36.6406,69.8877 36.1406,67.221 35.5,64.5 Z"/></g>
<g><path style="opacity:1" fill="#eac8aa" d="M 57.5,83.5 C 58.3091,85.2922 58.8091,87.2922 59,89.5C 60.3928,86.8749 61.5595,86.8749 62.5,89.5C 62.6816,91.5914 62.3482,93.5914 61.5,95.5C 63.6061,96.897 65.2728,98.7304 66.5,101C 65.9535,101.925 65.2868,102.758 64.5,103.5C 62.8144,102.143 61.1477,100.81 59.5,99.5C 56.5659,94.4238 55.8993,89.0905 57.5,83.5 Z"/></g>
<g><path style="opacity:1" fill="#f3d3b9" d="M 98.5,95.5 C 99.209,94.596 100.209,94.2627 101.5,94.5C 101.351,93.448 101.517,92.448 102,91.5C 104.865,93.4706 107.865,94.1373 111,93.5C 111.833,94.3333 112.667,95.1667 113.5,96C 111.112,96.3034 108.945,97.1367 107,98.5C 104.804,95.8748 101.97,94.8748 98.5,95.5 Z"/></g>
<g><path style="opacity:1" fill="#7e5641" d="M 67.5,95.5 C 68.0944,97.8553 69.0944,100.022 70.5,102C 69.3922,103.677 69.3922,105.177 70.5,106.5C 72.6281,107.281 72.7947,108.281 71,109.5C 69.187,108.391 68.3537,109.058 68.5,111.5C 68.1667,111.5 67.8333,111.5 67.5,111.5C 66.962,109.883 66.6287,108.216 66.5,106.5C 65.448,106.649 64.448,106.483 63.5,106C 61.9146,103.931 60.5813,101.764 59.5,99.5C 61.1477,100.81 62.8144,102.143 64.5,103.5C 65.2868,102.758 65.9535,101.925 66.5,101C 65.2728,98.7304 63.6061,96.897 61.5,95.5C 62.3482,93.5914 62.6816,91.5914 62.5,89.5C 62.369,88.7611 62.5357,88.0944 63,87.5C 64.4352,89.2113 66.2686,90.378 68.5,91C 67.1667,91.3333 65.8333,91.6667 64.5,92C 64.9574,92.414 65.2907,92.914 65.5,93.5C 64.8333,93.8333 64.1667,94.1667 63.5,94.5C 64.6888,95.4287 66.0222,95.762 67.5,95.5 Z"/></g>
<g><path style="opacity:0.941" fill="#3d6a6c" d="M 31.5,86.5 C 32.1667,86.5 32.8333,86.5 33.5,86.5C 36.4097,92.8038 41.0764,96.1372 47.5,96.5C 50.0952,97.7134 52.5952,99.0468 55,100.5C 55.9021,100.257 56.7354,99.9234 57.5,99.5C 57.5,99.8333 57.5,100.167 57.5,100.5C 54.5189,103.135 53.1856,106.468 53.5,110.5C 52.1667,109.833 51.1667,108.833 50.5,107.5C 51.8499,106.176 51.6833,105.176 50,104.5C 47.5034,103.751 45.0034,103.084 42.5,102.5C 43.3029,101.577 43.4696,100.577 43,99.5C 37.8778,96.2168 34.0444,91.8834 31.5,86.5 Z"/></g>
<g><path style="opacity:1" fill="#f1ecef" d="M 107.5,103.5 C 104.833,101.833 102.167,100.167 99.5,98.5C 99.62,97.4138 100.287,96.7472 101.5,96.5C 104.557,98.1179 107.39,100.118 110,102.5C 110.667,103.167 110.667,103.833 110,104.5C 109.329,103.748 108.496,103.414 107.5,103.5 Z"/></g>
<g><path style="opacity:1" fill="#0c162f" d="M 32.5,101.5 C 30.2627,100.551 27.9294,99.8844 25.5,99.5C 25.5,100.833 25.5,102.167 25.5,103.5C 20.4692,102.405 15.8026,100.405 11.5,97.5C 10.2867,97.7472 9.61998,98.4138 9.5,99.5C 6.0678,99.7573 2.73447,100.424 -0.5,101.5C -0.5,99.5 -0.5,97.5 -0.5,95.5C 0.666976,94.1852 2.16698,93.5186 4,93.5C 10.0986,95.1446 15.9319,97.4779 21.5,100.5C 25.6744,97.4886 29.3411,97.822 32.5,101.5 Z"/></g>
<g><path style="opacity:1" fill="#c6c6d0" d="M 42.5,102.5 C 45.0034,103.084 47.5034,103.751 50,104.5C 51.6833,105.176 51.8499,106.176 50.5,107.5C 49.8333,107.5 49.1667,107.5 48.5,107.5C 46.9639,104.908 44.6305,103.908 41.5,104.5C 41.8333,103.833 42.1667,103.167 42.5,102.5 Z"/></g>
<g><path style="opacity:1" fill="#370e18" d="M 99.5,98.5 C 102.167,100.167 104.833,101.833 107.5,103.5C 106.737,105.567 105.404,107.234 103.5,108.5C 103.833,108.833 104.167,109.167 104.5,109.5C 109.562,104.989 110.562,105.656 107.5,111.5C 106.167,113.5 104.833,115.5 103.5,117.5C 103.88,115.302 103.213,113.635 101.5,112.5C 98.7792,109.321 95.4459,108.321 91.5,109.5C 91.6036,107.297 92.2702,105.297 93.5,103.5C 96.9578,103.586 98.9578,101.919 99.5,98.5 Z"/></g>
<g><path style="opacity:1" fill="#cc8d68" d="M 115.5,95.5 C 116.239,95.369 116.906,95.5357 117.5,96C 116.703,99.7454 116.203,103.579 116,107.5C 114.595,108.731 113.429,110.064 112.5,111.5C 111.84,110.036 111.507,108.369 111.5,106.5C 112.816,102.836 114.149,99.1691 115.5,95.5 Z"/></g>
<g><path style="opacity:1" fill="#132441" d="M 32.5,101.5 C 34.1376,102.657 35.8043,103.824 37.5,105C 38.9285,105.579 40.2618,105.412 41.5,104.5C 44.6305,103.908 46.9639,104.908 48.5,107.5C 46.2627,106.551 43.9294,105.884 41.5,105.5C 41.5,107.5 41.5,109.5 41.5,111.5C 37.8169,108.815 34.8169,105.482 32.5,101.5 Z"/></g>
<g><path style="opacity:1" fill="#f9efe7" d="M 57.5,100.5 C 59.0842,106.961 61.0842,113.294 63.5,119.5C 60.141,116.471 56.8076,113.471 53.5,110.5C 53.1856,106.468 54.5189,103.135 57.5,100.5 Z"/></g>
<g><path style="opacity:1" fill="#db6f2a" d="M 29.5,133.5 C 28.1667,130.833 26.1667,128.833 23.5,127.5C 20.5125,121.663 16.5125,116.497 11.5,112C 9.55949,111.696 7.89282,110.863 6.5,109.5C 4.4697,111.751 2.13637,112.084 -0.5,110.5C -0.5,108.833 -0.5,107.167 -0.5,105.5C 2.64538,105.269 5.64538,104.769 8.5,104C 16.3558,110.029 23.6891,116.529 30.5,123.5C 30.8333,125.167 31.1667,126.833 31.5,128.5C 31.4439,130.64 30.7773,132.306 29.5,133.5 Z"/></g>
<g><path style="opacity:1" fill="#c0395c" d="M 101.5,112.5 C 101.5,113.5 101.5,114.5 101.5,115.5C 97.1918,115.017 93.8585,113.017 91.5,109.5C 95.4459,108.321 98.7792,109.321 101.5,112.5 Z"/></g>
<g><path style="opacity:1" fill="#f0d1ba" d="M 85.5,99.5 C 85.1866,102.247 85.52,104.914 86.5,107.5C 87.2811,106.271 87.7811,104.938 88,103.5C 88.3076,104.308 88.8076,104.975 89.5,105.5C 90.6223,104.37 91.9557,103.703 93.5,103.5C 92.2702,105.297 91.6036,107.297 91.5,109.5C 93.8585,113.017 97.1918,115.017 101.5,115.5C 101.5,114.5 101.5,113.5 101.5,112.5C 103.213,113.635 103.88,115.302 103.5,117.5C 101.358,118.478 99.1911,119.478 97,120.5C 94.863,119.923 92.6963,119.59 90.5,119.5C 87.041,117.219 85.041,113.885 84.5,109.5C 83.8038,112.556 82.9704,115.556 82,118.5C 81.3378,117.016 80.5045,115.683 79.5,114.5C 79.5,114.167 79.5,113.833 79.5,113.5C 79.5,111.833 79.5,110.167 79.5,108.5C 80.1174,108.611 80.6174,108.944 81,109.5C 81.3333,107.5 81.6667,105.5 82,103.5C 82.4983,101.456 83.665,100.122 85.5,99.5 Z"/></g>
<g><path style="opacity:1" fill="#b26133" d="M 23.5,127.5 C 24.9577,130.867 26.6244,134.201 28.5,137.5C 29.2652,138.612 30.2652,139.279 31.5,139.5C 31.5,140.5 31.5,141.5 31.5,142.5C 29.8333,142.5 28.1667,142.5 26.5,142.5C 25.5592,140.95 24.8925,139.284 24.5,137.5C 22.4937,132.487 19.8271,127.821 16.5,123.5C 15.9041,124.716 15.7374,126.049 16,127.5C 12.1988,125.074 8.03212,124.074 3.5,124.5C 6.89866,123.18 10.3987,123.18 14,124.5C 13.2356,120.993 11.4023,117.993 8.5,115.5C 8.18897,114.522 7.5223,113.855 6.5,113.5C 4.9853,115.082 3.31863,116.416 1.5,117.5C 3.38645,114.509 2.71979,112.509 -0.5,111.5C -0.5,111.167 -0.5,110.833 -0.5,110.5C 2.13637,112.084 4.4697,111.751 6.5,109.5C 7.89282,110.863 9.55949,111.696 11.5,112C 16.5125,116.497 20.5125,121.663 23.5,127.5 Z"/></g>
<g><path style="opacity:1" fill="#e6c81d" d="M 77.5,107.5 C 78.4916,107.328 79.1583,107.662 79.5,108.5C 79.5,110.167 79.5,111.833 79.5,113.5C 77.5454,114.323 75.5454,114.49 73.5,114C 72.3909,112.187 73.0576,111.354 75.5,111.5C 75.1568,109.517 75.8235,108.183 77.5,107.5 Z"/></g>
<g><path style="opacity:1" fill="#163873" d="M 32.5,101.5 C 34.8169,105.482 37.8169,108.815 41.5,111.5C 42.8333,113.5 44.1667,115.5 45.5,117.5C 43.6921,118.918 43.0254,120.918 43.5,123.5C 38.7695,117.59 33.7695,111.757 28.5,106C 26.7412,105.202 25.0745,105.369 23.5,106.5C 25.8442,107.337 27.8442,108.671 29.5,110.5C 28.4647,112.128 28.4647,113.795 29.5,115.5C 22.8333,110.167 16.1667,104.833 9.5,99.5C 9.61998,98.4138 10.2867,97.7472 11.5,97.5C 15.8026,100.405 20.4692,102.405 25.5,103.5C 25.5,102.167 25.5,100.833 25.5,99.5C 27.9294,99.8844 30.2627,100.551 32.5,101.5 Z"/></g>
<g><path style="opacity:1" fill="#efc9aa" d="M 57.5,100.5 C 57.5,100.167 57.5,99.8333 57.5,99.5C 58.1667,99.5 58.8333,99.5 59.5,99.5C 60.5813,101.764 61.9146,103.931 63.5,106C 64.448,106.483 65.448,106.649 66.5,106.5C 66.6287,108.216 66.962,109.883 67.5,111.5C 67.372,113.655 67.872,115.655 69,117.5C 71.9293,122.369 75.0959,127.035 78.5,131.5C 77.0695,131.579 75.7362,131.246 74.5,130.5C 73.5896,128.345 72.4229,126.345 71,124.5C 70.3828,125.449 70.5494,126.282 71.5,127C 70.9056,127.464 70.2389,127.631 69.5,127.5C 69.5,126.167 68.8333,125.5 67.5,125.5C 66.5849,123.246 65.2516,121.246 63.5,119.5C 61.0842,113.294 59.0842,106.961 57.5,100.5 Z"/></g>
<g><path style="opacity:1" fill="#efc09e" d="M -0.5,111.5 C 2.71979,112.509 3.38645,114.509 1.5,117.5C 1.16667,118.5 0.5,119.167 -0.5,119.5C -0.5,116.833 -0.5,114.167 -0.5,111.5 Z"/></g>
<g><path style="opacity:1" fill="#ab8661" d="M 70.5,106.5 C 72.1667,106.5 73.8333,106.5 75.5,106.5C 76.4916,106.328 77.1583,106.662 77.5,107.5C 75.8235,108.183 75.1568,109.517 75.5,111.5C 73.0576,111.354 72.3909,112.187 73.5,114C 75.5454,114.49 77.5454,114.323 79.5,113.5C 79.5,113.833 79.5,114.167 79.5,114.5C 78.0992,114.971 76.7658,115.638 75.5,116.5C 78.2161,120.203 80.8828,123.87 83.5,127.5C 77.6597,123.491 73.493,118.158 71,111.5C 70.2303,112.598 69.397,112.598 68.5,111.5C 68.3537,109.058 69.187,108.391 71,109.5C 72.7947,108.281 72.6281,107.281 70.5,106.5 Z"/></g>
<g><path style="opacity:1" fill="#1c4b96" d="M 43.5,123.5 C 44.9484,127.73 46.9484,131.73 49.5,135.5C 50.6876,137.722 51.6876,140.055 52.5,142.5C 48.8333,142.5 45.1667,142.5 41.5,142.5C 42.0439,136.531 41.0439,130.864 38.5,125.5C 37.7348,124.388 36.7348,123.721 35.5,123.5C 33.5,120.833 31.5,118.167 29.5,115.5C 28.4647,113.795 28.4647,112.128 29.5,110.5C 27.8442,108.671 25.8442,107.337 23.5,106.5C 25.0745,105.369 26.7412,105.202 28.5,106C 33.7695,111.757 38.7695,117.59 43.5,123.5 Z"/></g>
<g><path style="opacity:1" fill="#fad1af" d="M 90.5,119.5 C 91.2026,121.716 92.5359,123.549 94.5,125C 91.9296,128.118 88.5963,129.285 84.5,128.5C 83.8333,128.5 83.5,128.167 83.5,127.5C 80.8828,123.87 78.2161,120.203 75.5,116.5C 76.7658,115.638 78.0992,114.971 79.5,114.5C 80.5045,115.683 81.3378,117.016 82,118.5C 82.9704,115.556 83.8038,112.556 84.5,109.5C 85.041,113.885 87.041,117.219 90.5,119.5 Z"/></g>
<g><path style="opacity:1" fill="#553c2a" d="M 8.5,115.5 C 5.5,117.5 2.5,119.5 -0.5,121.5C -0.5,120.833 -0.5,120.167 -0.5,119.5C 0.5,119.167 1.16667,118.5 1.5,117.5C 3.31863,116.416 4.9853,115.082 6.5,113.5C 7.5223,113.855 8.18897,114.522 8.5,115.5 Z"/></g>
<g><path style="opacity:1" fill="#f4d5be" d="M 8.5,115.5 C 11.4023,117.993 13.2356,120.993 14,124.5C 10.3987,123.18 6.89866,123.18 3.5,124.5C 2.16667,125.167 0.833333,125.833 -0.5,126.5C -0.5,124.833 -0.5,123.167 -0.5,121.5C 2.5,119.5 5.5,117.5 8.5,115.5 Z"/></g>
<g><path style="opacity:1" fill="#943715" d="M 9.5,99.5 C 16.1667,104.833 22.8333,110.167 29.5,115.5C 31.5,118.167 33.5,120.833 35.5,123.5C 36.8114,127.468 38.1448,131.468 39.5,135.5C 38.9789,137.924 38.3123,140.257 37.5,142.5C 35.5,142.5 33.5,142.5 31.5,142.5C 31.5,141.5 31.5,140.5 31.5,139.5C 31.3862,137.282 30.7196,135.282 29.5,133.5C 30.7773,132.306 31.4439,130.64 31.5,128.5C 31.1667,126.833 30.8333,125.167 30.5,123.5C 23.6891,116.529 16.3558,110.029 8.5,104C 5.64538,104.769 2.64538,105.269 -0.5,105.5C -0.5,104.167 -0.5,102.833 -0.5,101.5C 2.73447,100.424 6.0678,99.7573 9.5,99.5 Z"/></g>
<g><path style="opacity:1" fill="#16336d" d="M 48.5,107.5 C 49.1667,107.5 49.8333,107.5 50.5,107.5C 51.1667,108.833 52.1667,109.833 53.5,110.5C 56.8076,113.471 60.141,116.471 63.5,119.5C 65.2516,121.246 66.5849,123.246 67.5,125.5C 63.5743,122.58 59.9077,119.247 56.5,115.5C 56.1667,116.167 55.8333,116.833 55.5,117.5C 56.5076,119.499 57.841,121.166 59.5,122.5C 56.2856,123.783 53.2856,123.116 50.5,120.5C 48.8333,117.833 47.1667,115.167 45.5,112.5C 44.3112,111.571 42.9778,111.238 41.5,111.5C 41.5,109.5 41.5,107.5 41.5,105.5C 43.9294,105.884 46.2627,106.551 48.5,107.5 Z"/></g>
<g><path style="opacity:1" fill="#aa775c" d="M 67.5,111.5 C 67.8333,111.5 68.1667,111.5 68.5,111.5C 73.0447,119.714 79.0447,126.714 86.5,132.5C 87.7979,134.052 87.4646,135.052 85.5,135.5C 83.3374,133.917 81.0041,132.584 78.5,131.5C 75.0959,127.035 71.9293,122.369 69,117.5C 67.872,115.655 67.372,113.655 67.5,111.5 Z"/></g>
<g><path style="opacity:1" fill="#623b26" d="M 24.5,137.5 C 20.4415,130.805 14.4415,126.805 6.5,125.5C 3.78193,125.695 1.4486,126.695 -0.5,128.5C -0.5,127.833 -0.5,127.167 -0.5,126.5C 0.833333,125.833 2.16667,125.167 3.5,124.5C 8.03212,124.074 12.1988,125.074 16,127.5C 15.7374,126.049 15.9041,124.716 16.5,123.5C 19.8271,127.821 22.4937,132.487 24.5,137.5 Z"/></g>
<g><path style="opacity:1" fill="#c18661" d="M 109.5,114.5 C 105.407,119.769 101.074,124.935 96.5,130C 93.1667,130.667 89.8333,130.667 86.5,130C 85.5842,129.722 84.9175,129.222 84.5,128.5C 88.5963,129.285 91.9296,128.118 94.5,125C 92.5359,123.549 91.2026,121.716 90.5,119.5C 92.6963,119.59 94.863,119.923 97,120.5C 99.1911,119.478 101.358,118.478 103.5,117.5C 104.833,115.5 106.167,113.5 107.5,111.5C 110.687,110.163 111.354,111.163 109.5,114.5 Z"/></g>
<g><path style="opacity:1" fill="#0a285c" d="M 41.5,111.5 C 42.9778,111.238 44.3112,111.571 45.5,112.5C 47.1667,115.167 48.8333,117.833 50.5,120.5C 53.2856,123.116 56.2856,123.783 59.5,122.5C 63.3132,127.431 67.1465,132.431 71,137.5C 71.4935,139.134 71.6602,140.801 71.5,142.5C 70.1667,142.5 68.8333,142.5 67.5,142.5C 65.1198,140.763 63.4531,138.43 62.5,135.5C 60.1911,133.013 57.5244,131.013 54.5,129.5C 51.8208,125.169 48.8208,121.169 45.5,117.5C 44.1667,115.5 42.8333,113.5 41.5,111.5 Z"/></g>
<g><path style="opacity:0.506" fill="#573521" d="M 116.5,93.5 C 117.833,93.5 119.167,93.5 120.5,93.5C 118.947,97.9906 118.114,102.657 118,107.5C 115.718,111.718 112.718,115.384 109,118.5C 108.506,120.134 108.34,121.801 108.5,123.5C 106.692,123.491 105.025,123.991 103.5,125C 101.64,128.36 98.973,130.86 95.5,132.5C 94.3691,134.074 94.2025,135.741 95,137.5C 96.8119,139.3 98.6452,140.967 100.5,142.5C 98.1667,142.5 95.8333,142.5 93.5,142.5C 90.8333,140.167 88.1667,137.833 85.5,135.5C 87.4646,135.052 87.7979,134.052 86.5,132.5C 79.0447,126.714 73.0447,119.714 68.5,111.5C 69.397,112.598 70.2303,112.598 71,111.5C 73.493,118.158 77.6597,123.491 83.5,127.5C 83.5,128.167 83.8333,128.5 84.5,128.5C 84.9175,129.222 85.5842,129.722 86.5,130C 89.8333,130.667 93.1667,130.667 96.5,130C 101.074,124.935 105.407,119.769 109.5,114.5C 110.833,113.833 111.833,112.833 112.5,111.5C 113.429,110.064 114.595,108.731 116,107.5C 116.203,103.579 116.703,99.7454 117.5,96C 116.906,95.5357 116.239,95.369 115.5,95.5C 115.328,94.5084 115.662,93.8417 116.5,93.5 Z"/></g>
<g><path style="opacity:1" fill="#f7eee6" d="M 21.5,142.5 C 15.8333,142.5 10.1667,142.5 4.5,142.5C 3.29931,140.091 1.63265,138.091 -0.5,136.5C -0.5,134.167 -0.5,131.833 -0.5,129.5C 1.88968,129.145 4.22301,128.478 6.5,127.5C 10.0809,129.08 13.4142,131.08 16.5,133.5C 18.244,136.547 19.9107,139.547 21.5,142.5 Z"/></g>
<g><path style="opacity:1" fill="#0f2756" d="M 43.5,123.5 C 46.6675,124.585 49.3341,126.419 51.5,129C 50.6919,129.308 50.0253,129.808 49.5,130.5C 52.0472,132.454 52.0472,134.121 49.5,135.5C 46.9484,131.73 44.9484,127.73 43.5,123.5 Z"/></g>
<g><path style="opacity:1" fill="#174694" d="M 45.5,117.5 C 48.8208,121.169 51.8208,125.169 54.5,129.5C 57.5244,131.013 60.1911,133.013 62.5,135.5C 63.4531,138.43 65.1198,140.763 67.5,142.5C 62.5,142.5 57.5,142.5 52.5,142.5C 51.6876,140.055 50.6876,137.722 49.5,135.5C 52.0472,134.121 52.0472,132.454 49.5,130.5C 50.0253,129.808 50.6919,129.308 51.5,129C 49.3341,126.419 46.6675,124.585 43.5,123.5C 43.0254,120.918 43.6921,118.918 45.5,117.5 Z"/></g>
<g><path style="opacity:1" fill="#1a4d96" d="M 67.5,125.5 C 68.8333,125.5 69.5,126.167 69.5,127.5C 70.8333,130.167 72.8333,132.167 75.5,133.5C 78.1379,136.474 80.8046,139.474 83.5,142.5C 79.5,142.5 75.5,142.5 71.5,142.5C 71.6602,140.801 71.4935,139.134 71,137.5C 67.1465,132.431 63.3132,127.431 59.5,122.5C 57.841,121.166 56.5076,119.499 55.5,117.5C 55.8333,116.833 56.1667,116.167 56.5,115.5C 59.9077,119.247 63.5743,122.58 67.5,125.5 Z"/></g>
<g><path style="opacity:1" fill="#595553" d="M 78.5,131.5 C 81.0041,132.584 83.3374,133.917 85.5,135.5C 82.4271,134.801 79.4271,133.801 76.5,132.5C 75.8933,132.624 75.56,132.957 75.5,133.5C 72.8333,132.167 70.8333,130.167 69.5,127.5C 70.2389,127.631 70.9056,127.464 71.5,127C 70.5494,126.282 70.3828,125.449 71,124.5C 72.4229,126.345 73.5896,128.345 74.5,130.5C 75.7362,131.246 77.0695,131.579 78.5,131.5 Z"/></g>
<g><path style="opacity:1" fill="#f0c8a9" d="M 24.5,137.5 C 24.8925,139.284 25.5592,140.95 26.5,142.5C 24.8333,142.5 23.1667,142.5 21.5,142.5C 19.9107,139.547 18.244,136.547 16.5,133.5C 13.4142,131.08 10.0809,129.08 6.5,127.5C 4.22301,128.478 1.88968,129.145 -0.5,129.5C -0.5,129.167 -0.5,128.833 -0.5,128.5C 1.4486,126.695 3.78193,125.695 6.5,125.5C 14.4415,126.805 20.4415,130.805 24.5,137.5 Z"/></g>
<g><path style="opacity:1" fill="#682514" d="M 23.5,127.5 C 26.1667,128.833 28.1667,130.833 29.5,133.5C 30.7196,135.282 31.3862,137.282 31.5,139.5C 30.2652,139.279 29.2652,138.612 28.5,137.5C 26.6244,134.201 24.9577,130.867 23.5,127.5 Z"/></g>
<g><path style="opacity:1" fill="#564c48" d="M -0.5,136.5 C 1.63265,138.091 3.29931,140.091 4.5,142.5C 3.83333,142.5 3.16667,142.5 2.5,142.5C 1.97439,140.77 0.974395,139.436 -0.5,138.5C -0.5,137.833 -0.5,137.167 -0.5,136.5 Z"/></g>
<g><path style="opacity:1" fill="#40150c" d="M 35.5,123.5 C 36.7348,123.721 37.7348,124.388 38.5,125.5C 41.0439,130.864 42.0439,136.531 41.5,142.5C 40.1667,142.5 38.8333,142.5 37.5,142.5C 38.3123,140.257 38.9789,137.924 39.5,135.5C 38.1448,131.468 36.8114,127.468 35.5,123.5 Z"/></g>
<g><path style="opacity:1" fill="#f7d3bd" d="M -0.5,138.5 C 0.974395,139.436 1.97439,140.77 2.5,142.5C 1.5,142.5 0.5,142.5 -0.5,142.5C -0.5,141.167 -0.5,139.833 -0.5,138.5 Z"/></g>
<g><path style="opacity:1" fill="#f4dbc5" d="M 75.5,133.5 C 75.56,132.957 75.8933,132.624 76.5,132.5C 79.4271,133.801 82.4271,134.801 85.5,135.5C 88.1667,137.833 90.8333,140.167 93.5,142.5C 90.1667,142.5 86.8333,142.5 83.5,142.5C 80.8046,139.474 78.1379,136.474 75.5,133.5 Z"/></g>
</svg>
